<?xml version="1.0" encoding="UTF-8" standalone="no"?>
<!-- Created with Inkscape (http://www.inkscape.org/) -->

<svg
   xmlns:dc="http://purl.org/dc/elements/1.1/"
   xmlns:cc="http://creativecommons.org/ns#"
   xmlns:rdf="http://www.w3.org/1999/02/22-rdf-syntax-ns#"
   xmlns:svg="http://www.w3.org/2000/svg"
   xmlns="http://www.w3.org/2000/svg"
   xmlns:sodipodi="http://sodipodi.sourceforge.net/DTD/sodipodi-0.dtd"
   xmlns:inkscape="http://www.inkscape.org/namespaces/inkscape"
   id="svg3039"
   version="1.1"
   inkscape:version="0.48.4 r9939"
   width="256"
   height="256"
   sodipodi:docname="profile.png"
   inkscape:export-filename="/home/frag/freelance/worldofpiggy.github.io/img/piggy.png"
   inkscape:export-xdpi="90"
   inkscape:export-ydpi="90">
  <metadata
     id="metadata3045">
    <rdf:RDF>
      <cc:Work
         rdf:about="">
        <dc:format>image/svg+xml</dc:format>
        <dc:type
           rdf:resource="http://purl.org/dc/dcmitype/StillImage" />
        <dc:title></dc:title>
      </cc:Work>
    </rdf:RDF>
  </metadata>
  <defs
     id="defs3043">
    <inkscape:perspective
       sodipodi:type="inkscape:persp3d"
       inkscape:vp_x="0 : 128 : 1"
       inkscape:vp_y="0 : 1000 : 0"
       inkscape:vp_z="256 : 128 : 1"
       inkscape:persp3d-origin="128 : 85.333333 : 1"
       id="perspective3950" />
  </defs>
  <sodipodi:namedview
     pagecolor="#ffffff"
     bordercolor="#666666"
     borderopacity="1"
     objecttolerance="10"
     gridtolerance="10"
     guidetolerance="10"
     inkscape:pageopacity="0"
     inkscape:pageshadow="2"
     inkscape:window-width="1920"
     inkscape:window-height="993"
     id="namedview3041"
     showgrid="false"
     inkscape:zoom="2.6074563"
     inkscape:cx="138.16657"
     inkscape:cy="104.94995"
     inkscape:window-x="0"
     inkscape:window-y="25"
     inkscape:window-maximized="1"
     inkscape:current-layer="layer8"
     showguides="true"
     inkscape:guide-bbox="true" />
  <g
     inkscape:groupmode="layer"
     id="layer8"
     inkscape:label="bg"
     style="display:inline;opacity:1">
    <rect
       style="fill:#437aab;fill-opacity:0;stroke:#437000;stroke-width:0.67900002000000004;stroke-miterlimit:4;stroke-opacity:0;stroke-dasharray:none"
       id="rect3924"
       width="88.975609"
       height="77.853653"
       x="7.2867951"
       y="26.657705" />
    <rect
       style="fill:#437aab;fill-opacity:1;stroke:none"
       id="rect3944"
       width="260.02353"
       height="262.70813"
       x="-2.3010919"
       y="-2.1059594" />
    <path
       sodipodi:type="arc"
       style="fill:#ffffff;fill-opacity:1;stroke:none"
       id="path3971"
       sodipodi:cx="166.82925"
       sodipodi:cy="140.94534"
       sodipodi:rx="87.441544"
       sodipodi:ry="77.086624"
       d="m 254.2708,140.94534 a 87.441544,77.086624 0 1 1 -174.883089,0 87.441544,77.086624 0 1 1 174.883089,0 z"
       transform="matrix(1.3925439,0,0,1.5970149,-103.43728,-99.16204)" />
  </g>
  <g
     inkscape:groupmode="layer"
     id="layer5"
     inkscape:label="colors"
     style="display:inline">
    <path
       style="fill:#efbea0;fill-opacity:1;stroke:none;display:inline"
       d="m 113.98352,167.69322 c -5.25986,-0.66465 -7.26043,-0.72007 -10.43656,-3.8683 -5.994388,-5.94175 -8.997996,-14.33235 -6.193133,-20.57486 1.163874,-2.59031 5.945833,-8.26354 9.135253,-10.10383 7.66631,-4.42345 20.44287,-6.96308 27.59678,-5.41505 6.7131,1.45265 13.98032,5.99718 18.00073,10.31571 5.1933,5.57839 6.27062,13.04984 3.3561,19.21575 -0.84089,1.77898 -2.30443,3.01125 -4.71143,5.09888 -3.68028,3.192 -5.31483,3.51392 -9.97466,4.77969 -2.86294,0.77767 -5.04347,1.02217 -10.92145,1.28963 -8.70866,0.39626 -12.35531,-0.29583 -15.85163,-0.73767 l 0,0 z m 33.2688,-8.61698 c 2.21884,-0.76133 3.0538,-4.75052 1.60911,-7.68789 -1.21584,-2.47209 -3.71404,-3.0748 -7.23701,-1.74598 -2.35073,0.88666 -2.49229,2.82714 -2.14462,4.8886 0.59656,3.53725 1.18537,4.94719 4.41911,4.94719 1.2001,0 2.70914,-0.18087 3.35341,-0.40192 z m -31.86817,-7.94405 c 0.73486,-0.29344 2.0797,-0.0298 2.65709,-0.57409 0.91151,-0.85934 1.04979,-1.27988 1.04979,-3.1925 0,-3.56469 -1.177,-5.08575 -5.16951,-6.6807 -1.93954,-0.77481 -2.32331,-0.81188 -4.17748,-0.40346 -2.32117,0.51129 -3.76104,1.69909 -4.82379,3.97936 -0.96016,2.06016 0.32909,3.05558 1.49574,4.79078 1.28332,1.90873 1.57717,1.61213 4.16613,2.15869 2.2174,0.46812 2.63322,0.78797 4.80203,-0.0781 z"
       id="path4087"
       inkscape:connector-curvature="0"
       sodipodi:nodetypes="csssssssssccccsssscsssssssss" />
    <g
       id="g4203"
       style="fill:#de8787">
      <path
         inkscape:connector-curvature="0"
         id="path4089"
         d="m 109.67015,150.22603 c -1.35278,-0.51888 -3.18137,-1.99104 -3.82426,-3.07884 -0.31174,-0.52745 -0.15947,-1.24855 0.52027,-2.46392 1.73198,-3.09674 4.30263,-3.82004 8.09149,-2.27667 2.70546,1.10205 3.80087,2.51866 3.6026,4.65897 -0.10558,1.14045 -0.51091,1.84705 -1.40842,2.45565 -1.45985,0.98993 -5.24274,1.37181 -6.98168,0.70481 z"
         style="fill:#de8787;stroke:none;display:inline" />
      <path
         inkscape:connector-curvature="0"
         id="path4091"
         d="m 141.53214,156.5109 c -0.79721,-0.73421 -1.1528,-1.5423 -1.1528,-2.61965 0,-1.43957 0.16712,-1.626 2.19996,-2.45419 2.64264,-1.07662 4.28782,-0.73133 5.24081,1.09991 0.80088,1.53896 0.34179,4.00798 -0.85491,4.59784 -1.64446,0.81055 -4.19338,0.51784 -5.43306,-0.62391 z"
         style="fill:#de8787;stroke:none;display:inline" />
    </g>
    <path
       style="fill:#1a1a1a;stroke:none;display:inline"
       d="m 140.07401,120.15963 c -1.29211,-1.12809 -1.596,-3.26239 -0.69597,-4.88828 0.95578,-1.72667 2.58721,-1.72027 3.6439,0.0143 0.58939,0.9675 0.57549,3.03731 -0.0277,4.1068 -0.43402,0.76968 -1.26009,1.36479 -1.89604,1.36591 -0.18582,3.3e-4 -0.64676,-0.2691 -1.02432,-0.59874 l 0,0 z"
       id="path4093"
       inkscape:connector-curvature="0" />
    <path
       style="fill:#1a1a1a;stroke:none;display:inline"
       d="m 122.88133,117.91768 c -1.87035,-1.14974 -1.87926,-4.58812 -0.0149,-5.74368 0.75731,-0.4694 1.32873,-0.47598 2.06478,-0.0237 0.95487,0.58666 1.41744,1.52677 1.41744,2.88074 0,1.35398 -0.46257,2.29409 -1.41744,2.88075 -0.72407,0.44486 -1.33304,0.44664 -2.04992,0.006 l 0,0 z"
       id="path4095"
       inkscape:connector-curvature="0" />
    <g
       id="g4968"
       style="fill:#ffbfab;fill-opacity:1">
      <path
         inkscape:connector-curvature="0"
         id="path4097"
         d="m 129.84122,179.37826 c -6.93651,-0.35423 -13.38291,-0.28971 -19.25177,-1.23614 -2.36083,-0.38071 -2.15908,-1.37283 -3.18645,-1.6421 -5.20545,-1.36433 -9.139412,-6.2593 -12.170822,-10.30315 -3.5656,-4.75645 -4.35266,-6.05676 -5.10999,-8.44232 -0.82766,-2.60707 -1.17386,-6.43089 -0.90233,-9.9661 0.17711,-2.30587 0.58817,-5.79253 0.8952,-7.59322 0.10808,-0.6339 0.25732,-1.74062 0.33164,-2.45939 0.17452,-1.68794 0.62687,-3.09589 1.63021,-5.07406 2.46737,-4.86466 6.73239,-9.69549 10.306682,-11.67403 1.83949,-1.01824 2.81739,-1.17387 8.47458,-1.34866 3.37613,-0.10432 4.25835,-0.0262 9.99758,0.88523 6.87001,1.09101 8.90726,1.34586 15.83293,1.98063 l 6.57627,0.60275 5.83051,1.1418 c 5.32215,1.04225 5.96055,1.19649 7.32203,1.76906 1.66128,0.69865 3.34254,1.61756 4.7152,2.57711 1.88067,1.31468 4.11782,3.68664 5.10583,5.4135 0.60865,1.06382 1.68778,4.46282 2.1678,6.82812 0.70127,3.45544 0.82474,5.11082 0.84316,11.30424 0.0144,4.83561 -0.0155,5.76272 -0.21593,6.69382 -0.86908,4.03779 -2.01576,8.31981 -7.17564,13.39202 -2.70543,2.65946 -6.86475,9.00477 -13.37262,7.6343 l -2.50848,0.37097 -7.32203,0.035 c -3.95254,0.0192 -7.62034,-0.82846 -8.81356,-0.88936 z m -2.0339,-9.28 c 2.08814,-0.10748 5.04746,-0.23606 6.57627,-0.28573 2.75388,-0.0895 2.80733,-0.097 5.76272,-0.81122 3.53464,-0.85422 4.72265,-1.23026 6.41626,-2.03093 1.5902,-0.75179 2.84522,-1.58349 4.03966,-2.67707 0.51365,-0.47028 1.34736,-1.14659 1.8527,-1.5029 3.17909,-2.24155 5.21741,-5.78413 6.13524,-10.66297 0.8465,-4.49969 -0.56474,-9.75187 -3.7705,-14.03254 -1.04226,-1.39174 -3.06534,-3.57414 -4.14359,-4.46991 -5.79796,-4.81676 -13.93213,-7.90331 -21.51283,-8.16316 -1.93278,-0.0663 -2.3988,-0.0354 -4.27118,0.28243 -10.40213,1.76591 -16.55823,4.11829 -21.78339,8.3239 -2.3068,1.85669 -4.891102,4.84178 -5.861712,6.77077 -2.53295,5.03399 -2.37691,11.13943 0.44213,17.29995 1.44271,3.15277 4.138152,6.48941 7.245562,8.96914 1.32626,1.05836 1.48067,1.14167 2.98793,1.61212 2.33665,0.72932 5.08464,1.22595 8.22372,1.48623 1.52834,0.12672 8.32224,0.0637 11.66101,-0.10811 z"
         style="fill:#ffbfab;fill-opacity:1;stroke:none;display:inline"
         sodipodi:nodetypes="csssssssssssscsssssscssccccccsssssssccssssssc" />
      <g
         style="fill:#ffbfab;fill-opacity:1"
         id="g4957">
        <g
           id="g4208"
           style="fill:#ffbfab;fill-opacity:1;stroke-width:2;stroke-miterlimit:4;stroke-dasharray:none">
          <path
             sodipodi:nodetypes="ccc"
             inkscape:connector-curvature="0"
             id="path3829"
             d="m 83.389831,240.27119 c 11.743432,5.77577 25.890049,10.15402 45.559319,9.08475 13.06011,-0.29837 26.17639,-1.14833 37.83051,-4.61018"
             style="fill:#ffbfab;fill-opacity:1;stroke:#000000;stroke-width:2;stroke-linecap:butt;stroke-linejoin:miter;stroke-miterlimit:4;stroke-opacity:1;stroke-dasharray:none" />
          <path
             inkscape:connector-curvature="0"
             id="path4099"
             d="m 55.427878,236.02574 c -1.61118,-3.8336 -2.19152,-6.47651 -2.52334,-11.49152 -0.10666,-1.61206 -0.0905,-1.80158 0.33056,-3.87661 0.96511,-4.75627 2.18807,-8.38302 4.2024,-12.46238 2.47042,-5.00304 5.2236,-8.81903 9.62406,-13.33927 2.68961,-2.76281 4.67521,-4.54012 9.35593,-8.37448 2.01356,-1.64947 5.55255,-4.561 7.86441,-6.47008 2.31186,-1.90907 4.23448,-3.47242 4.27248,-3.47411 0.038,-0.002 1.28885,0.97872 2.77966,2.17869 5.18488,4.17338 7.76425,5.5812 11.930912,6.51192 1.60414,0.35832 4.74489,0.7458 7.52542,0.92843 6.39135,0.41977 8.50562,0.63293 10.98305,1.1073 1.36997,0.26232 3.38438,0.78158 4.12627,1.06365 0.63406,0.24107 3.76635,0.91526 5.29746,1.14021 2.6523,0.38969 5.50167,0.49695 10.91526,0.4109 l 5.22034,-0.083 1.01695,-0.38134 c 0.55932,-0.20974 1.41355,-0.48147 1.8983,-0.60384 0.48475,-0.12237 0.99783,-0.25698 1.14018,-0.29912 0.18707,-0.0554 0.10731,0.10637 -0.28767,0.58341 -0.30057,0.36303 -1.00989,1.39225 -1.57625,2.28716 -0.56636,0.89492 -1.43055,2.17627 -1.9204,2.84746 -1.05097,1.44 -2.12362,3.5754 -2.42094,4.81952 -0.32682,1.36755 -0.41065,2.9122 -0.23164,4.26788 0.34751,2.63169 -0.97963,-0.0782 15.62027,31.89565 l 1.35512,2.61017 -38.70119,0 -38.701202,0 0.39257,-1.38983 c 1.24729,-4.41581 1.78461,-8.79331 1.24491,-10.14214 -0.19745,-0.49349 -0.20492,-0.81042 -0.068,-2.8841 0.3124,-4.73111 1.25227,-9.43619 3.19509,-15.99493 0.7281,-2.458 0.7896,-2.59952 1.76764,-4.0678 2.30277,-3.45702 3.65745,-4.78965 5.51444,-5.42471 0.18978,-0.0649 0.20024,-0.15427 0.0736,-0.62867 -0.17003,-0.637 -0.20084,-0.63714 -1.51901,-0.007 -1.12952,0.54007 -2.30697,1.65127 -3.63834,3.43364 -1.98203,2.65343 -2.43827,3.47835 -3.0486,5.51218 -2.03284,6.77408 -3.04521,11.5451 -3.40644,16.05359 -0.20269,2.5298 -0.17687,4.29316 0.0676,4.61639 0.48932,0.64693 -0.0594,4.63 -1.24802,9.05883 l -0.50036,1.86441 -13.58421,0 -13.58421,0 -0.75508,-1.79661 z"
             style="fill:#ffbfab;fill-opacity:1;stroke:none;display:inline" />
          <path
             inkscape:connector-curvature="0"
             id="path4159"
             d="m 184.47049,254.68815 c -0.22373,-0.0304 -1.74056,-0.38737 -3.37073,-0.79324 -1.63017,-0.40587 -3.09839,-0.73795 -3.26272,-0.73795 -0.64251,0 -4.29541,-2.73006 -6.4326,-4.80752 -1.90912,-1.85576 -3.14729,-3.32012 -4.8446,-5.72956 -0.7244,-1.02833 -1.78304,-2.51037 -2.35253,-3.29342 -0.85222,-1.1718 -2.49816,-4.24177 -9.30139,-17.34874 -5.46279,-10.52451 -8.34984,-16.22633 -8.51336,-16.81356 -0.15437,-0.55438 -0.27514,-1.57697 -0.32114,-2.71906 -0.0649,-1.61172 -0.0377,-1.96376 0.22734,-2.94533 0.40402,-1.49603 1.07156,-2.78219 2.48968,-4.7969 0.65098,-0.92482 1.65949,-2.4137 2.24114,-3.30862 1.15211,-1.7726 2.15905,-2.82052 3.18505,-3.31467 0.45927,-0.2212 1.71274,-0.49593 4.1301,-0.90522 2.98208,-0.50491 3.50965,-0.56211 3.74738,-0.4063 0.40676,0.26658 4.35239,2.18412 5.07665,2.98524 2.80261,3.10005 4.62376,6.67971 4.62376,9.30618 0,0.82751 0.89476,1.49958 1.70941,3.33424 2.09542,4.71892 2.48697,5.77566 3.24417,9.52092 l 0.50271,2.48649 4.96677,5.65054 c 1.15942,1.31903 -0.77914,0.74988 0.15288,1.88639 0.93201,1.1365 0.9468,2.87992 1.02721,2.87992 0.25291,0 0.77135,-0.6464 0.66128,-0.82449 -0.45523,-0.73659 -3.89493,-4.65656 -5.56913,-6.34675 l -2.06677,-2.08649 -0.29767,-1.50673 c -0.67613,-3.42234 -2.13659,-7.84904 -3.93802,-11.93624 -0.98761,-2.24076 -1.0708,-2.4998 -1.0708,-3.33424 0,-3.4217 -2.79269,-8.11179 -7.05085,-11.84136 -0.78305,-0.68584 -1.52449,-1.32468 -1.64764,-1.41965 -0.18315,-0.14124 -0.5191,-0.1223 -1.84557,0.10401 -2.04303,0.34858 -2.24114,0.35414 -1.7912,0.0503 0.77929,-0.52629 5.86146,-4.25389 7.03593,-5.16063 0.70232,-0.54221 1.3276,-0.98584 1.38951,-0.98584 0.28485,0 4.18672,2.29721 6.19019,3.64447 3.91319,2.63146 7.20364,5.46434 12.77626,10.99959 5.49042,5.4536 9.11472,11.39337 13.02072,21.33928 l 0.79222,2.01724 -0.73689,11.1353 c -0.47892,7.23701 -0.81496,11.49105 -0.95988,12.15147 -0.55375,2.52346 -1.92349,5.71622 -3.67563,8.56758 -0.60616,0.98644 -1.14082,1.62964 -2.15187,2.58867 -0.79454,0.75368 -1.51013,1.31678 -1.74792,1.37545 -0.22144,0.0546 -0.7468,0.31179 -1.16747,0.57143 -1.09855,0.67807 -1.85304,0.86708 -3.36672,0.84344 -0.71526,-0.0112 -1.48353,-0.0452 -1.70726,-0.0756 l 0,0 z"
             style="fill:#ffbfab;fill-opacity:1;stroke:none"
             sodipodi:nodetypes="csssssssscsssscsscscssscscsssssscssssscsssscccccc" />
          <path
             inkscape:connector-curvature="0"
             id="path4101"
             d="m 119.93846,249.45105 c -10.31036,-0.44719 -19.54931,-2.63815 -28.786077,-6.82641 -1.814708,-0.82286 -6.562848,-3.26432 -6.788474,-3.4906 -0.05431,-0.0545 0.03411,-0.56995 0.196488,-1.1455 l 0.29524,-1.04645 38.551833,0 38.55184,0 0.16131,0.35042 c 0.0887,0.19272 0.50626,0.87603 0.92789,1.51844 1.07896,1.64401 3.28172,5.30638 3.22484,5.36172 -0.12399,0.12064 -4.07421,1.25626 -6.06142,1.74257 -6.92844,1.69546 -14.75363,2.70168 -24.66413,3.17148 -9.36958,0.44415 -12.22989,0.51091 -15.60934,0.36433 z"
             style="fill:#ffbfab;fill-opacity:1;stroke:none;display:inline" />
          <path
             inkscape:connector-curvature="0"
             id="path4103"
             d="m 65.697228,242.59091 c -3.66593,-0.85892 -5.83343,-1.67866 -8.16499,-3.08795 -0.7383,-0.44626 -1.02535,-0.79266 -1.24388,-1.50105 l -0.0941,-0.30509 13.50067,0 c 9.5408,0 13.50066,0.0428 13.50066,0.14581 0,0.0802 -0.24642,0.77607 -0.54759,1.54638 -0.50598,1.29413 -1.4041,2.90296 -1.73459,3.10721 -0.15116,0.0934 -6.57698,0.42695 -10.53138,0.54662 l -2.44068,0.0739 -2.24411,-0.52579 z"
             style="fill:#ffbfab;fill-opacity:1;stroke:none;display:inline" />
        </g>
        <g
           id="g4199"
           style="fill:#ffbfab;fill-opacity:1">
          <path
             inkscape:connector-curvature="0"
             id="path4085"
             d="m 132.19959,189.33373 c -1.31809,-0.17605 -4.05766,-0.77601 -6.08791,-1.33322 -3.79265,-1.0409 -7.05627,-1.49001 -15.76762,-2.16981 -6.0396,-0.4713 -9.26698,-1.2318 -12.220914,-2.87976 -4.113054,-2.2946 -8.609026,-6.16606 -11.859283,-10.21194 -1.716258,-2.13639 -4.234164,-5.26622 -5.595348,-6.95518 -3.344031,-4.14928 -6.655908,-9.48255 -7.364751,-11.85978 -0.826284,-2.7711 -1.370768,-8.13041 -1.408521,-13.86392 -0.04011,-6.09171 0.747865,-9.03854 4.562851,-17.06395 3.079926,-6.47909 4.665836,-8.88602 7.406419,-11.24075 2.683481,-2.30566 2.520963,-3.49872 7.316627,-4.50995 2.268239,-0.47827 3.827137,-0.73434 5.076271,-0.087 0.389192,-0.21557 -0.52628,-1.10138 -3.196128,-3.09253 -3.496937,-2.60799 -10.114274,-9.057551 -10.114274,-9.857839 0,-0.196882 0.48605,-0.464893 1.080115,-0.595586 0.594062,-0.130693 2.464534,-0.681811 4.156602,-1.224701 2.927154,-0.939157 3.162715,-1.103745 4.852793,-3.39059 0.976966,-1.321929 2.113489,-3.061555 2.525606,-3.865833 1.2077,-2.356921 5.099085,-14.118659 4.770635,-14.41928 -0.16517,-0.151178 -0.681147,-0.389282 -1.146611,-0.529119 -0.786341,-0.236237 0.920201,0.548739 -0.808412,5.744988 -3.193703,9.600322 -6.161285,14.534784 -9.62714,15.737307 -5.093556,1.767276 -10.060031,-0.154064 -14.580663,-2.676412 -4.145405,-2.312995 -4.970235,-3.632258 -4.968839,-7.947348 0.0022,-6.893845 3.894606,-16.251391 7.573882,-18.208152 2.316103,-1.231782 11.905327,-0.544089 17.758708,1.273568 4.870987,1.512593 15.243505,7.025222 18.355825,9.755483 2.52277,2.213086 4.78647,5.941917 6.014,9.906508 1.28238,4.141743 1.93347,4.691757 3.83917,3.243157 0.71216,-0.541349 2.52166,-1.458848 4.02112,-2.038889 2.49805,-0.966326 3.20311,-1.056489 8.42144,-1.076903 6.52399,-0.02551 11.49207,0.777456 14.69101,2.374509 1.10091,0.549626 4.56448,2.890484 7.69682,5.201906 3.13232,2.311422 5.91932,4.329398 6.19334,4.484404 0.32116,0.181675 1.30421,-3.369808 5.2259,-7.042176 6.11576,-5.726978 8.65954,-6.211261 12.60562,-7.564287 2.8244,-0.968428 7.92909,0.112704 11.4164,1.076546 3.82452,1.056898 6.59298,2.86552 11.47083,7.493814 6.47763,6.146247 7.25918,6.966233 10.08067,10.576405 3.04128,3.89138 4.27915,6.15307 4.27915,7.81839 0,1.91685 -1.68121,4.75621 -3.65094,6.16594 -1.54679,1.10704 -2.27523,1.32547 -5.72318,1.71621 l -3.9508,0.44772 -13.20083,-4.49113 c -12.12969,-4.12672 -11.33433,-7.43082 -11.83043,-6.75467 -1.22161,1.66498 -0.55222,2.13676 9.71563,6.8473 3.71675,1.70513 7.18315,3.37804 7.70313,3.71759 l 0.94542,0.61735 -3.8491,3.15844 c -5.90005,4.84138 -6.20692,5.04244 -8.64192,5.662 -5.57518,1.41855 -5.22278,1.25236 -5.22278,2.46321 0,0.61935 0.58225,1.98216 1.30271,3.04911 0.71649,1.06107 1.89482,3.67692 2.61852,5.81296 1.1423,3.37162 1.33888,4.53207 1.49079,8.80035 0.27873,7.8313 -1.07092,12.77139 -5.16256,18.89641 -2.76722,4.14244 -4.69121,6.29144 -9.27063,10.35486 -4.38714,3.8928 -13.25849,10.592 -15.56165,11.75141 -0.88322,0.4446 -3.18092,1.29244 -5.106,1.88406 -3.16521,0.97275 -4.13905,1.08351 -10.17721,1.15734 -3.67238,0.0448 -7.75549,-0.0623 -9.07356,-0.23846 l 0,0 z m 18.20045,-6.46358 c 3.63835,-0.82793 7.16533,-2.71414 9.74582,-4.4297 3.85403,-2.56224 9.06302,-10.3126 10.69786,-15.91711 0.90782,-3.11214 1.98606,-15.7939 1.07435,-20.15038 -1.26092,-6.0256 -2.45654,-8.84479 -4.83843,-11.40877 -2.48108,-2.67074 -5.55102,-4.85191 -8.68329,-6.16938 -1.55222,-0.6529 -12.71035,-3.1678 -14.05488,-3.1678 -0.0775,0 0.13847,-0.42465 0.47971,-0.94367 1.32452,-2.01461 0.49501,-6.6636 -1.36611,-7.65626 -1.52208,-0.81181 -3.41795,-0.48463 -4.47989,0.77313 -1.17089,1.38679 -1.66873,4.03505 -1.05845,5.63036 0.23791,0.62189 0.33955,1.22342 0.22588,1.3367 -0.22309,0.22234 -9.28068,-0.58191 -10.67973,-0.94827 l -0.84884,-0.22227 0.79906,-1.34968 c 0.98942,-1.67126 0.81362,-4.76012 -0.36067,-6.33717 -1.02873,-1.38155 -3.17126,-1.92715 -4.84863,-1.23473 -2.23923,0.92437 -3.26268,4.56838 -2.118,7.5412 0.18684,0.48527 -0.0935,0.51528 -1.84715,0.19763 -1.1371,-0.20598 -4.90333,-0.31591 -8.36939,-0.24433 -5.99972,0.12394 -5.86881,0.99717 -8.03671,2.05808 -4.386653,2.1467 -10.249565,7.29376 -11.538046,13.34959 -3.907346,18.36443 -3.045512,12.59659 -2.732892,19.38798 0.299987,6.51694 1.607989,8.19043 5.286701,13.18857 4.383636,5.9559 6.465659,10.3574 11.715487,13.41348 2.2668,1.31957 3.18701,1.58708 7.85537,2.28357 12.7485,1.90202 31.849,2.41459 37.9808,1.01923 l 0,0 z"
             style="fill:#ffbfab;fill-opacity:1;stroke:none;display:inline"
             sodipodi:nodetypes="csssssssssscsssssssssssssssssssssssscssssscsssscsssssssscscccccsscsssssscccccsscssssssssccc" />
          <path
             inkscape:connector-curvature="0"
             id="path4197"
             d="m 131.24492,183.58821 c -7.69433,-0.34524 -15.36726,-1.05109 -20.53515,-1.88906 -3.21869,-0.5219 -4.50801,-0.93159 -6.48451,-2.06048 -4.747799,-2.71174 -8.570774,-6.14306 -12.618725,-11.32596 -5.134299,-6.57383 -6.023185,-9.41689 -5.823117,-18.62495 0.126063,-5.80202 0.925103,-11.19684 2.220078,-14.98912 0.448154,-1.3124 1.633915,-3.67189 2.577566,-5.12896 0.991703,-1.53129 2.264422,-3.22767 2.354356,-3.13809 0.04103,0.0409 -0.168137,0.39702 -0.464805,0.79146 -0.924645,1.22936 -2.375891,3.62872 -3.068949,5.07393 -0.843568,1.75905 -1.284239,3.05116 -1.467644,4.30334 -1.46648,10.0122 -1.714876,13.08362 -1.371054,16.9532 0.329933,3.71328 1.401638,7.06532 3.090213,9.66546 0.59832,0.92132 2.419743,3.36983 3.883337,5.2203 3.261742,4.12393 7.885134,5.56936 12.830674,8.21766 1.284,0.68757 0.98842,1.53352 3.41371,1.92607 9.86199,1.59623 19.51944,0.8077 30.5377,2.39562 l 6.07184,0.87505 1.91025,-0.40596 c 5.54522,-1.17848 9.28071,-2.73886 13.03795,-5.4462 2.70376,-1.94824 7.63834,-9.50945 9.05752,-13.87875 0.88363,-2.72051 0.93049,-3.1225 0.98211,-8.42673 0.0703,-7.22845 -0.22529,-10.58119 -1.30941,-14.8501 -1.09392,-4.30754 -2.08601,-6.38138 -4.09551,-8.56124 -0.46515,-0.50459 -0.78465,-0.91743 -0.71002,-0.91743 0.25457,0 2.49999,2.50091 3.22904,3.59645 1.54035,2.31471 2.95418,6.60369 3.54119,10.74258 0.63987,4.51155 0.6487,14.20327 0.0162,17.80485 -0.6476,3.68774 -3.94526,9.67284 -7.76823,14.099 -1.7823,2.06351 -3.6286,3.38032 -6.63222,4.73026 -3.58792,1.61252 -7.15078,2.69054 -9.82622,2.97311 -3.76547,0.39772 -11.12019,0.51955 -16.57821,0.27465 l 0,0 z"
             style="fill:#ffbfab;fill-opacity:1;stroke:none"
             sodipodi:nodetypes="csssssscssssssssscsssssssssssssccc" />
        </g>
      </g>
    </g>
  </g>
  <g
     inkscape:groupmode="layer"
     id="layer1"
     inkscape:label="ears"
     style="display:inline">
    <path
       style="fill:#ac9393;fill-opacity:0.60386472;stroke:none"
       d="m 178.48228,103.98078 c 6.34012,-6.20612 7.94413,-5.39839 18.70555,-3.4271 6.79117,1.74914 10.77654,4.07077 11.28937,8.68626 -1.07205,3.3474 -1.68614,4.19739 -7.81006,5.011 -6.48927,-1.554 -12.24626,-1.54322 -20.29649,-6.11982 -2.44456,-1.16086 -0.96589,-1.26757 -1.88837,-4.15034 z"
       id="path3027"
       inkscape:connector-curvature="0"
       sodipodi:nodetypes="cccccc" />
    <path
       style="fill:#ac9393;fill-opacity:0.60386472;stroke:none"
       d="m 101.91907,71.178972 c 1.84301,6.56779 0.12044,10.474066 -2.58929,18.010902 -1.945825,4.610385 -9.777003,2.913022 -11.374449,3.292637 -0.403701,-1.980067 4.590233,0.384186 5.228712,-4.46361 1.804532,-4.439326 1.92954,-8.942344 5.404707,-13.684666 0.94843,-1.506155 1.83113,-3.292828 3.33032,-3.155263 z"
       id="path3027-3"
       inkscape:connector-curvature="0"
       sodipodi:nodetypes="cccccc" />
    <path
       style="fill:#ac9393;fill-opacity:0.60386472;stroke:none"
       d="m 101.84735,193.14957 c 6.53154,10.59681 3.07022,18.75543 -2.008403,34.09261 -3.857888,9.57176 -7.923257,11.22643 -11.986567,12.96093 -3.064704,-1.39648 -2.963926,-0.52612 -2.575658,-9.66396 2.178726,-10.52706 -0.849949,-17.48647 6.958916,-28.30248 2.075408,-3.33294 5.668404,-8.34732 9.611712,-9.0871 z"
       id="path3027-6"
       inkscape:connector-curvature="0"
       sodipodi:nodetypes="cccccc" />
  </g>
  <g
     inkscape:groupmode="layer"
     id="layer4"
     inkscape:label="Piggy"
     style="display:inline">
    <g
       transform="translate(0.42143596,0.87983878)"
       id="g3994">
      <path
         sodipodi:nodetypes="cccccccccccc"
         inkscape:connector-curvature="0"
         id="path3817"
         d="m 104.8915,118.12616 c 12.47674,-0.82736 9.43668,-0.001 25.02439,2.01346 l 12.75189,1.15055 11.88898,2.30109 c 5.64925,1.95055 9.88271,5.08092 12.46426,9.58789 2.58669,6.37096 3.25744,13.06124 2.78049,19.94281 1.00767,6.77544 -2.93219,13.55088 -8.53322,20.32632 -4.8707,3.94987 -10.15522,5.41687 -15.53238,6.32801 -12.15063,0.38185 -24.38639,0.0219 -38.06392,-2.39698 -6.62016,-3.25868 -11.724274,-7.89559 -15.532381,-13.71068 -6.173624,-7.06837 -4.740208,-16.83602 -3.164003,-26.65433 -0.298669,-4.72701 8.567028,-18.1187 15.915894,-18.88814 z"
         style="fill:none;stroke:#000000;stroke-width:1.5;stroke-linecap:butt;stroke-linejoin:miter;stroke-miterlimit:4;stroke-opacity:1;stroke-dasharray:none" />
      <g
         id="g3961">
        <path
           style="fill:none;stroke:#000000;stroke-width:1.5;stroke-linecap:butt;stroke-linejoin:miter;stroke-miterlimit:4;stroke-opacity:1;stroke-dasharray:none"
           d="m 120.38332,86.602407 c 0.79198,-1.959928 5.1274,-3.400408 8.0183,-4.242813 0.57222,-0.10213 1.24842,-0.18938 1.99595,-0.259567 4.01401,-0.376883 10.08473,-0.261785 13.1574,0.683089 5.49127,0.531864 8.85121,3.33754 12.80845,6.426126 l 6.37025,4.700306 9.32663,-9.005025 c 3.77882,-3.296249 6.70476,-4.033878 9.64824,-4.824121 3.36894,-0.861998 10.13958,0.06727 13.50754,1.929648 2.49373,1.99007 5.58596,2.982639 7.39699,6.110553 3.74171,3.627748 7.8647,6.384536 10.93467,11.577889 2.77171,2.682658 2.6111,3.760688 4.02312,6.669958 0.12311,1.99313 -1.04264,4.49552 -2.0814,6.25628 -5.02266,3.80682 -3.09032,2.70271 -7.12745,3.41386 -5.79061,0.65421 -4.29218,0.4539 -6.33025,0.12986 l -23.29478,-11.39976 c 6.51625,4.70374 13.49498,5.70773 20.01679,10.36699 l -9.32663,7.71859 -2.25126,1.60804 -7.39699,1.92965 1.28644,0"
           id="path3049"
           inkscape:connector-curvature="0"
           sodipodi:nodetypes="ccscccccccccccccccccc" />
        <path
           style="fill:none;stroke:#000000;stroke-width:1.5;stroke-linecap:butt;stroke-linejoin:miter;stroke-miterlimit:4;stroke-opacity:1;stroke-dasharray:none"
           d="m 120.71152,85.910857 -2.20522,-6.999159 c -2.62634,-3.333461 -2.35707,-5.607471 -9.9714,-9.875525 -7.45937,-3.669497 -11.511006,-7.832341 -27.133726,-8.341464 -1.752338,0.350505 -1.409875,-0.822483 -5.656854,1.342305 -4.429434,4.746102 -5.422498,8.802199 -6.711522,14.861227 l -0.383516,5.848612 c 0.53735,2.690573 1.956295,4.49955 4.026913,5.656855 2.133352,1.133836 3.21677,2.363121 7.957948,3.259882 3.496692,0.539084 6.721598,-0.824338 9.971404,-2.013457 5.196988,-5.019761 6.529838,-12.716426 9.012613,-19.463414"
           id="path3813"
           inkscape:connector-curvature="0"
           sodipodi:nodetypes="ccccccccccc" />
        <path
           style="fill:none;stroke:#000000;stroke-width:1.5;stroke-linecap:butt;stroke-linejoin:miter;stroke-miterlimit:4;stroke-opacity:1;stroke-dasharray:none"
           d="m 80.730022,91.375953 c 4.474645,7.830406 10.386227,11.536777 13.71068,13.998317 -2.270874,0.938 -8.575732,0.92476 -10.354919,3.83516 -4.622199,3.58846 -6.331412,7.96299 -8.053827,11.7931 -1.870546,3.67536 -3.530445,7.35071 -4.122791,11.02607 -0.891463,2.88829 -0.70406,5.95716 -0.09588,14.0942 0.3491,3.91909 1.218636,8.28826 3.355762,10.93019 3.325771,5.88813 6.284765,8.00269 8.820856,11.98486 l 4.889824,5.94449 c 4.106123,3.18428 7.829477,6.98099 13.135403,8.24559 7.17415,1.95522 15.78427,0.49542 24.35324,3.54751 7.61703,2.09866 13.72127,1.17172 20.32633,1.24643 3.21139,-1.48867 6.79454,-1.27574 11.21782,-4.21867 7.1408,-5.07008 14.03196,-10.3482 19.65518,-16.68293 3.67551,-4.61982 6.9236,-9.37942 7.67031,-14.9571 1.15438,-4.02691 0.82364,-8.05383 0.4794,-12.08074 -0.61356,-3.79555 -2.39573,-10.23373 -5.56098,-13.51893"
           id="path3815"
           inkscape:connector-curvature="0"
           sodipodi:nodetypes="ccccccccccccccccc" />
        <path
           style="fill:none;stroke:#000000;stroke-width:1.5;stroke-linecap:butt;stroke-linejoin:miter;stroke-miterlimit:4;stroke-opacity:1;stroke-dasharray:none"
           d="m 126.46425,125.79647 c 5.7145,-0.44084 16.5996,1.94945 23.87384,8.6291 5.37503,5.29994 6.51675,9.05956 7.09504,14.0942 -0.41881,5.99771 -2.49293,10.65048 -6.99916,13.32716 -4.44609,4.67822 -9.21806,4.79407 -13.90244,6.13625 -10.12751,-0.0185 -20.67007,2.03831 -30.10597,-1.43818 -5.15813,-3.72788 -8.741493,-8.61059 -10.06728,-15.14886 -0.481425,-3.61107 -0.570603,-7.29346 1.72582,-11.40959 6.51533,-9.78397 17.3051,-12.51227 28.38015,-14.19008 z"
           id="path3819"
           inkscape:connector-curvature="0"
           sodipodi:nodetypes="ccccccccc" />
        <path
           style="fill:none;stroke:#000000;stroke-width:1.5;stroke-linecap:butt;stroke-linejoin:miter;stroke-miterlimit:4;stroke-opacity:1;stroke-dasharray:none"
           d="m 111.41127,139.89067 c 2.44585,0.94402 5.29358,1.42875 6.04037,4.31455 l 0.0959,3.6434 c -1.78974,2.78294 -3.57947,2.15436 -5.36921,2.87636 -2.33243,-0.4555 -4.71824,-0.21705 -6.8074,-3.83515 -0.60759,-0.63884 -0.71734,-1.77552 0.95878,-4.69807 0.96675,-1.63955 2.84192,-2.189 5.08156,-2.30109 z"
           id="path3821"
           inkscape:connector-curvature="0"
           sodipodi:nodetypes="ccccccc" />
        <path
           style="fill:none;stroke:#000000;stroke-width:1.5;stroke-linecap:butt;stroke-linejoin:miter;stroke-miterlimit:4;stroke-opacity:1;stroke-dasharray:none"
           d="m 144.3936,148.90328 c 1.82584,0.2175 3.42921,0.76872 3.73928,3.25989 0.35991,1.53406 0.0555,3.06812 -0.86291,4.60218 -1.56602,0.8394 -3.13205,0.62924 -4.69807,0.76703 -1.50187,-0.51181 -2.77347,-1.48418 -3.25988,-4.02691 -0.44257,-2.42407 0.90582,-3.05718 2.20522,-3.73928 z"
           id="path3823"
           inkscape:connector-curvature="0"
           sodipodi:nodetypes="ccccccc" />
        <path
           style="fill:none;stroke:#000000;stroke-width:1.5;stroke-linecap:butt;stroke-linejoin:miter;stroke-miterlimit:4;stroke-opacity:1;stroke-dasharray:none"
           d="m 88.40678,174.77966 -13.152543,10.84746 c -15.190325,11.91249 -21.145159,22.60016 -23.457627,36.47457 0.366037,10.27113 2.423089,12.49319 4.067797,16.67797 4.229768,2.96053 8.047671,3.44987 11.932203,4.33898 0,0 11.70971,-0.41383 12.61017,-0.54237 2.734475,-0.39034 6.232839,-16.65412 4.610169,-16.94915 -0.07881,-5.72542 0.91885,-11.66581 4.067797,-21.69491 3.155035,-5.11439 4.965887,-6.84465 7.050847,-7.32204"
           id="path3825"
           inkscape:connector-curvature="0"
           sodipodi:nodetypes="cccccsccc" />
        <path
           style="fill:none;stroke:#000000;stroke-width:1.5;stroke-linecap:butt;stroke-linejoin:miter;stroke-miterlimit:4;stroke-opacity:1;stroke-dasharray:none"
           d="m 166.63443,177.86541 c 6.28891,3.22359 12.12239,7.55905 16.00964,11.69391 9.93715,8.30991 13.94941,17.6073 17.49152,26.98305 l -1.49152,22.50848 c -0.69863,3.81512 -2.15875,7.10178 -4.88136,11.25423 -3.13512,2.60923 -1.73614,2.38755 -3.79661,2.84746 -3.66102,3.19434 -9.49152,-0.0694 -13.15254,-0.40678 -8.94162,-5.65474 -10.54296,-10.33077 -14.50847,-15.32203 l -16.67797,-32.1356 c -1.80138,-6.38445 0.53219,-9.4977 2.57627,-12.20338 2.15131,-2.84216 3.00699,-6.18145 6.91525,-6.91526 3.63327,-2.39389 9.31057,0.6106 8.1356,-0.27118 4.57393,3.56161 9.48286,7.76358 13.42373,13.9661 4.90247,7.161 5.6162,11.22278 4.74576,14.91525 0.98117,6.04662 0.74626,9.1134 2.71186,11.25424"
           id="path3827"
           inkscape:connector-curvature="0"
           sodipodi:nodetypes="ccccccccccccccc" />
        <path
           sodipodi:type="arc"
           style="fill:none;stroke:#000000;stroke-width:2;stroke-miterlimit:4;stroke-opacity:1;stroke-dasharray:none"
           id="path3831"
           sodipodi:cx="125.86441"
           sodipodi:cy="114.23729"
           sodipodi:rx="3.2203391"
           sodipodi:ry="3.8644068"
           d="m 129.08475,114.23729 a 3.2203391,3.8644068 0 1 1 -6.44068,0 3.2203391,3.8644068 0 1 1 6.44068,0 z"
           transform="matrix(0.95278185,0,0,1.0132831,3.4685083,-1.6191225)" />
        <path
           sodipodi:type="arc"
           style="fill:none;stroke:#000000;stroke-width:2;stroke-miterlimit:4;stroke-opacity:1;stroke-dasharray:none"
           id="path3831-3"
           sodipodi:cx="125.86441"
           sodipodi:cy="114.23729"
           sodipodi:rx="3.2203391"
           sodipodi:ry="3.8644068"
           d="m 129.08475,114.23729 a 3.2203391,3.8644068 0 1 1 -6.44068,0 3.2203391,3.8644068 0 1 1 6.44068,0 z"
           transform="matrix(0.8609869,0,0,1.0245066,32.378155,-0.69787449)" />
      </g>
    </g>
  </g>
</svg>
